<mxfile host="app.diagrams.net" modified="2023-05-13T08:58:10.548Z" agent="Mozilla/5.0 (Macintosh; Intel Mac OS X 10_15_7) AppleWebKit/537.36 (KHTML, like Gecko) Chrome/112.0.0.0 Safari/537.36" etag="vRw4yrUJuIg84dmeasDn" version="21.1.7" type="device">
  <diagram id="R2lEEEUBdFMjLlhIrx00" name="Page-1">
    <mxGraphModel dx="2043" dy="691" grid="1" gridSize="10" guides="1" tooltips="1" connect="1" arrows="1" fold="1" page="1" pageScale="1" pageWidth="850" pageHeight="1100" math="0" shadow="0" extFonts="Permanent Marker^https://fonts.googleapis.com/css?family=Permanent+Marker">
      <root>
        <mxCell id="0" />
        <mxCell id="1" parent="0" />
        <mxCell id="PsZriic9sOLCEWJr2VZp-91" value="" style="rounded=0;sketch=0;orthogonalLoop=1;jettySize=auto;html=1;shadow=0;strokeColor=default;endArrow=none;endFill=0;elbow=vertical;startArrow=none;" parent="1" source="F8_96T87ZvqFcHofUjec-1" target="PsZriic9sOLCEWJr2VZp-90" edge="1">
          <mxGeometry relative="1" as="geometry" />
        </mxCell>
        <mxCell id="PsZriic9sOLCEWJr2VZp-1" value="Collezionista" style="rounded=0;whiteSpace=wrap;html=1;" parent="1" vertex="1">
          <mxGeometry x="380" y="30" width="120" height="60" as="geometry" />
        </mxCell>
        <mxCell id="PsZriic9sOLCEWJr2VZp-14" value="" style="edgeStyle=orthogonalEdgeStyle;rounded=0;orthogonalLoop=1;jettySize=auto;html=1;endArrow=none;startArrow=none;" parent="1" source="F8_96T87ZvqFcHofUjec-13" edge="1">
          <mxGeometry relative="1" as="geometry">
            <mxPoint x="300" y="630" as="targetPoint" />
          </mxGeometry>
        </mxCell>
        <mxCell id="PsZriic9sOLCEWJr2VZp-3" value="Disco" style="rounded=0;whiteSpace=wrap;html=1;" parent="1" vertex="1">
          <mxGeometry x="380" y="600" width="120" height="60" as="geometry" />
        </mxCell>
        <mxCell id="32nzAGSy19erSscVr2zR-53" style="edgeStyle=none;shape=connector;rounded=0;sketch=0;orthogonalLoop=1;jettySize=auto;html=1;shadow=0;labelBackgroundColor=default;strokeColor=default;fontFamily=Helvetica;fontSize=11;fontColor=default;endArrow=none;endFill=0;elbow=vertical;startArrow=none;" parent="1" source="F8_96T87ZvqFcHofUjec-22" target="PsZriic9sOLCEWJr2VZp-24" edge="1">
          <mxGeometry relative="1" as="geometry" />
        </mxCell>
        <mxCell id="PsZriic9sOLCEWJr2VZp-4" value="Immagini" style="rounded=0;whiteSpace=wrap;html=1;" parent="1" vertex="1">
          <mxGeometry x="810" y="655.25" width="120" height="60" as="geometry" />
        </mxCell>
        <mxCell id="PsZriic9sOLCEWJr2VZp-15" value="" style="edgeStyle=orthogonalEdgeStyle;rounded=0;orthogonalLoop=1;jettySize=auto;html=1;endArrow=none;entryX=1;entryY=0.5;entryDx=0;entryDy=0;startArrow=none;" parent="1" source="F8_96T87ZvqFcHofUjec-18" edge="1">
          <mxGeometry relative="1" as="geometry">
            <mxPoint x="120" y="630" as="targetPoint" />
          </mxGeometry>
        </mxCell>
        <mxCell id="PsZriic9sOLCEWJr2VZp-23" value="" style="edgeStyle=orthogonalEdgeStyle;rounded=0;orthogonalLoop=1;jettySize=auto;html=1;endArrow=none;startArrow=none;" parent="1" source="F8_96T87ZvqFcHofUjec-11" target="PsZriic9sOLCEWJr2VZp-3" edge="1">
          <mxGeometry relative="1" as="geometry" />
        </mxCell>
        <mxCell id="PsZriic9sOLCEWJr2VZp-21" value="Contiene" style="rhombus;whiteSpace=wrap;html=1;rounded=0;" parent="1" vertex="1">
          <mxGeometry x="400" y="450" width="80" height="80" as="geometry" />
        </mxCell>
        <mxCell id="32nzAGSy19erSscVr2zR-50" style="edgeStyle=none;shape=connector;rounded=0;sketch=0;orthogonalLoop=1;jettySize=auto;html=1;entryX=1;entryY=0.5;entryDx=0;entryDy=0;shadow=0;labelBackgroundColor=default;strokeColor=default;fontFamily=Helvetica;fontSize=11;fontColor=default;endArrow=none;endFill=0;elbow=vertical;startArrow=none;" parent="1" source="F8_96T87ZvqFcHofUjec-20" target="PsZriic9sOLCEWJr2VZp-3" edge="1">
          <mxGeometry relative="1" as="geometry" />
        </mxCell>
        <mxCell id="PsZriic9sOLCEWJr2VZp-24" value="Raffigura" style="rhombus;whiteSpace=wrap;html=1;rounded=0;" parent="1" vertex="1">
          <mxGeometry x="640" y="645.25" width="80" height="80" as="geometry" />
        </mxCell>
        <mxCell id="PsZriic9sOLCEWJr2VZp-83" value="" style="rounded=0;sketch=0;orthogonalLoop=1;jettySize=auto;html=1;shadow=0;strokeColor=default;endArrow=none;endFill=0;elbow=vertical;" parent="1" source="PsZriic9sOLCEWJr2VZp-81" target="PsZriic9sOLCEWJr2VZp-1" edge="1">
          <mxGeometry relative="1" as="geometry" />
        </mxCell>
        <mxCell id="PsZriic9sOLCEWJr2VZp-81" value="Email" style="ellipse;whiteSpace=wrap;html=1;align=center;" parent="1" vertex="1">
          <mxGeometry x="259" width="100" height="40" as="geometry" />
        </mxCell>
        <mxCell id="PsZriic9sOLCEWJr2VZp-84" value="" style="rounded=0;sketch=0;orthogonalLoop=1;jettySize=auto;html=1;shadow=0;strokeColor=default;endArrow=none;endFill=0;elbow=vertical;" parent="1" source="PsZriic9sOLCEWJr2VZp-82" target="PsZriic9sOLCEWJr2VZp-1" edge="1">
          <mxGeometry relative="1" as="geometry" />
        </mxCell>
        <mxCell id="PsZriic9sOLCEWJr2VZp-82" value="Nickname" style="ellipse;whiteSpace=wrap;html=1;align=center;fontStyle=4;" parent="1" vertex="1">
          <mxGeometry x="259" y="50" width="100" height="40" as="geometry" />
        </mxCell>
        <mxCell id="PsZriic9sOLCEWJr2VZp-88" value="" style="rounded=0;sketch=0;orthogonalLoop=1;jettySize=auto;html=1;shadow=0;strokeColor=default;endArrow=none;endFill=0;elbow=vertical;" parent="1" source="PsZriic9sOLCEWJr2VZp-86" target="PsZriic9sOLCEWJr2VZp-87" edge="1">
          <mxGeometry relative="1" as="geometry" />
        </mxCell>
        <mxCell id="PsZriic9sOLCEWJr2VZp-86" value="&lt;u&gt;Nome&lt;/u&gt;" style="ellipse;whiteSpace=wrap;html=1;align=center;" parent="1" vertex="1">
          <mxGeometry x="517.5" y="355" width="100" height="40" as="geometry" />
        </mxCell>
        <mxCell id="PsZriic9sOLCEWJr2VZp-92" value="" style="rounded=0;sketch=0;orthogonalLoop=1;jettySize=auto;html=1;shadow=0;strokeColor=default;endArrow=none;endFill=0;elbow=vertical;startArrow=none;" parent="1" source="F8_96T87ZvqFcHofUjec-3" target="PsZriic9sOLCEWJr2VZp-90" edge="1">
          <mxGeometry relative="1" as="geometry" />
        </mxCell>
        <mxCell id="PsZriic9sOLCEWJr2VZp-165" style="edgeStyle=none;rounded=0;sketch=0;orthogonalLoop=1;jettySize=auto;html=1;shadow=0;strokeColor=default;endArrow=none;endFill=0;elbow=vertical;entryX=0.5;entryY=0;entryDx=0;entryDy=0;startArrow=none;" parent="1" source="F8_96T87ZvqFcHofUjec-9" target="PsZriic9sOLCEWJr2VZp-21" edge="1">
          <mxGeometry relative="1" as="geometry" />
        </mxCell>
        <mxCell id="PsZriic9sOLCEWJr2VZp-87" value="Collezione" style="shape=ext;margin=3;double=1;whiteSpace=wrap;html=1;align=center;" parent="1" vertex="1">
          <mxGeometry x="390" y="330" width="100" height="40" as="geometry" />
        </mxCell>
        <mxCell id="32nzAGSy19erSscVr2zR-34" value="" style="edgeStyle=none;shape=connector;rounded=0;sketch=0;orthogonalLoop=1;jettySize=auto;html=1;shadow=0;labelBackgroundColor=default;strokeColor=default;fontFamily=Helvetica;fontSize=11;fontColor=default;endArrow=none;endFill=0;elbow=vertical;entryX=1;entryY=0.75;entryDx=0;entryDy=0;" parent="1" source="PsZriic9sOLCEWJr2VZp-89" target="32nzAGSy19erSscVr2zR-2" edge="1">
          <mxGeometry relative="1" as="geometry">
            <mxPoint x="666" y="458" as="targetPoint" />
          </mxGeometry>
        </mxCell>
        <mxCell id="PsZriic9sOLCEWJr2VZp-89" value="QuantitÃ " style="ellipse;whiteSpace=wrap;html=1;align=center;" parent="1" vertex="1">
          <mxGeometry x="820" y="420" width="100" height="40" as="geometry" />
        </mxCell>
        <mxCell id="PsZriic9sOLCEWJr2VZp-90" value="Possiede" style="shape=rhombus;double=1;perimeter=rhombusPerimeter;whiteSpace=wrap;html=1;align=center;" parent="1" vertex="1">
          <mxGeometry x="260" y="180" width="120" height="60" as="geometry" />
        </mxCell>
        <mxCell id="PsZriic9sOLCEWJr2VZp-98" value="" style="rounded=0;sketch=0;orthogonalLoop=1;jettySize=auto;html=1;shadow=0;strokeColor=default;endArrow=none;endFill=0;elbow=vertical;exitX=1;exitY=0.5;exitDx=0;exitDy=0;" parent="1" edge="1">
          <mxGeometry relative="1" as="geometry">
            <mxPoint x="-90" y="580" as="sourcePoint" />
            <mxPoint y="610" as="targetPoint" />
          </mxGeometry>
        </mxCell>
        <mxCell id="PsZriic9sOLCEWJr2VZp-126" style="edgeStyle=none;rounded=0;sketch=0;orthogonalLoop=1;jettySize=auto;html=1;shadow=0;strokeColor=default;endArrow=none;endFill=0;elbow=vertical;" parent="1" edge="1">
          <mxGeometry relative="1" as="geometry">
            <mxPoint x="-48.765247622278366" y="684.3826238111392" as="sourcePoint" />
            <mxPoint y="660" as="targetPoint" />
          </mxGeometry>
        </mxCell>
        <mxCell id="PsZriic9sOLCEWJr2VZp-100" value="Durata" style="ellipse;whiteSpace=wrap;html=1;align=center;" parent="1" vertex="1">
          <mxGeometry x="-150" y="670" width="100" height="40" as="geometry" />
        </mxCell>
        <mxCell id="PsZriic9sOLCEWJr2VZp-116" value="" style="rounded=0;sketch=0;orthogonalLoop=1;jettySize=auto;html=1;shadow=0;strokeColor=default;endArrow=none;endFill=0;elbow=vertical;" parent="1" source="PsZriic9sOLCEWJr2VZp-103" edge="1">
          <mxGeometry relative="1" as="geometry">
            <mxPoint y="633.5294117647059" as="targetPoint" />
          </mxGeometry>
        </mxCell>
        <mxCell id="PsZriic9sOLCEWJr2VZp-103" value="Titolo" style="ellipse;whiteSpace=wrap;html=1;align=center;fontStyle=4;" parent="1" vertex="1">
          <mxGeometry x="-160" y="620" width="100" height="40" as="geometry" />
        </mxCell>
        <mxCell id="PsZriic9sOLCEWJr2VZp-107" value="" style="rounded=0;sketch=0;orthogonalLoop=1;jettySize=auto;html=1;shadow=0;strokeColor=default;endArrow=none;endFill=0;elbow=vertical;" parent="1" target="PsZriic9sOLCEWJr2VZp-4" edge="1">
          <mxGeometry relative="1" as="geometry">
            <mxPoint x="984.6445756135399" y="630.4979586189063" as="sourcePoint" />
          </mxGeometry>
        </mxCell>
        <mxCell id="PsZriic9sOLCEWJr2VZp-106" value="Collocazione" style="ellipse;whiteSpace=wrap;html=1;align=center;" parent="1" vertex="1">
          <mxGeometry x="977" y="605.25" width="100" height="40" as="geometry" />
        </mxCell>
        <mxCell id="PsZriic9sOLCEWJr2VZp-109" value="" style="rounded=0;sketch=0;orthogonalLoop=1;jettySize=auto;html=1;shadow=0;strokeColor=default;endArrow=none;endFill=0;elbow=vertical;" parent="1" target="PsZriic9sOLCEWJr2VZp-4" edge="1">
          <mxGeometry relative="1" as="geometry">
            <mxPoint x="984.6445756135399" y="740.0020413810935" as="sourcePoint" />
          </mxGeometry>
        </mxCell>
        <mxCell id="PsZriic9sOLCEWJr2VZp-108" value="Par_tecnici" style="ellipse;whiteSpace=wrap;html=1;align=center;fillColor=default;dashed=1;" parent="1" vertex="1">
          <mxGeometry x="947" y="740" width="100" height="40" as="geometry" />
        </mxCell>
        <mxCell id="PsZriic9sOLCEWJr2VZp-113" value="" style="rounded=0;sketch=0;orthogonalLoop=1;jettySize=auto;html=1;shadow=0;strokeColor=default;endArrow=none;endFill=0;elbow=vertical;" parent="1" source="PsZriic9sOLCEWJr2VZp-110" target="PsZriic9sOLCEWJr2VZp-4" edge="1">
          <mxGeometry relative="1" as="geometry" />
        </mxCell>
        <mxCell id="PsZriic9sOLCEWJr2VZp-110" value="Sorgente" style="ellipse;whiteSpace=wrap;html=1;align=center;fontStyle=4;" parent="1" vertex="1">
          <mxGeometry x="967" y="665.25" width="100" height="40" as="geometry" />
        </mxCell>
        <mxCell id="PsZriic9sOLCEWJr2VZp-118" value="Disco" style="swimlane;fontStyle=0;childLayout=stackLayout;horizontal=1;startSize=26;horizontalStack=0;resizeParent=1;resizeParentMax=0;resizeLast=0;collapsible=1;marginBottom=0;align=center;fontSize=14;" parent="1" vertex="1">
          <mxGeometry x="-160" y="920" width="160" height="306" as="geometry" />
        </mxCell>
        <mxCell id="PsZriic9sOLCEWJr2VZp-120" value="Titolo&#xa;" style="text;strokeColor=none;fillColor=none;spacingLeft=4;spacingRight=4;overflow=hidden;rotatable=0;points=[[0,0.5],[1,0.5]];portConstraint=eastwest;fontSize=12;fontStyle=4" parent="PsZriic9sOLCEWJr2VZp-118" vertex="1">
          <mxGeometry y="26" width="160" height="26" as="geometry" />
        </mxCell>
        <mxCell id="32nzAGSy19erSscVr2zR-118" value="Anno di uscita" style="text;strokeColor=none;fillColor=none;spacingLeft=4;spacingRight=4;overflow=hidden;rotatable=0;points=[[0,0.5],[1,0.5]];portConstraint=eastwest;fontSize=12;fontStyle=4" parent="PsZriic9sOLCEWJr2VZp-118" vertex="1">
          <mxGeometry y="52" width="160" height="26" as="geometry" />
        </mxCell>
        <mxCell id="32nzAGSy19erSscVr2zR-119" value="Barcode" style="text;strokeColor=none;fillColor=none;spacingLeft=4;spacingRight=4;overflow=hidden;rotatable=0;points=[[0,0.5],[1,0.5]];portConstraint=eastwest;fontSize=12;fontStyle=0" parent="PsZriic9sOLCEWJr2VZp-118" vertex="1">
          <mxGeometry y="78" width="160" height="26" as="geometry" />
        </mxCell>
        <mxCell id="32nzAGSy19erSscVr2zR-121" value="Tipo" style="text;strokeColor=none;fillColor=none;spacingLeft=4;spacingRight=4;overflow=hidden;rotatable=0;points=[[0,0.5],[1,0.5]];portConstraint=eastwest;fontSize=12;fontStyle=0" parent="PsZriic9sOLCEWJr2VZp-118" vertex="1">
          <mxGeometry y="104" width="160" height="26" as="geometry" />
        </mxCell>
        <mxCell id="32nzAGSy19erSscVr2zR-81" value="Tipo di disco (ENUM)" style="swimlane;fontStyle=0;childLayout=stackLayout;horizontal=1;startSize=26;horizontalStack=0;resizeParent=1;resizeParentMax=0;resizeLast=0;collapsible=1;marginBottom=0;align=center;fontSize=14;fontFamily=Helvetica;fontColor=default;" parent="PsZriic9sOLCEWJr2VZp-118" vertex="1">
          <mxGeometry y="130" width="160" height="176" as="geometry" />
        </mxCell>
        <mxCell id="32nzAGSy19erSscVr2zR-82" value="CD" style="text;strokeColor=none;fillColor=none;spacingLeft=4;spacingRight=4;overflow=hidden;rotatable=0;points=[[0,0.5],[1,0.5]];portConstraint=eastwest;fontSize=11;fontFamily=Helvetica;fontColor=default;" parent="32nzAGSy19erSscVr2zR-81" vertex="1">
          <mxGeometry y="26" width="160" height="30" as="geometry" />
        </mxCell>
        <mxCell id="32nzAGSy19erSscVr2zR-83" value="Vinile" style="text;strokeColor=none;fillColor=none;spacingLeft=4;spacingRight=4;overflow=hidden;rotatable=0;points=[[0,0.5],[1,0.5]];portConstraint=eastwest;fontSize=11;fontFamily=Helvetica;fontColor=default;" parent="32nzAGSy19erSscVr2zR-81" vertex="1">
          <mxGeometry y="56" width="160" height="30" as="geometry" />
        </mxCell>
        <mxCell id="32nzAGSy19erSscVr2zR-85" value="EP" style="text;strokeColor=none;fillColor=none;spacingLeft=4;spacingRight=4;overflow=hidden;rotatable=0;points=[[0,0.5],[1,0.5]];portConstraint=eastwest;fontSize=11;fontFamily=Helvetica;fontColor=default;" parent="32nzAGSy19erSscVr2zR-81" vertex="1">
          <mxGeometry y="86" width="160" height="30" as="geometry" />
        </mxCell>
        <mxCell id="32nzAGSy19erSscVr2zR-84" value="Musicassetta" style="text;strokeColor=none;fillColor=none;spacingLeft=4;spacingRight=4;overflow=hidden;rotatable=0;points=[[0,0.5],[1,0.5]];portConstraint=eastwest;fontSize=11;fontFamily=Helvetica;fontColor=default;" parent="32nzAGSy19erSscVr2zR-81" vertex="1">
          <mxGeometry y="116" width="160" height="30" as="geometry" />
        </mxCell>
        <mxCell id="32nzAGSy19erSscVr2zR-86" value="Digitale" style="text;strokeColor=none;fillColor=none;spacingLeft=4;spacingRight=4;overflow=hidden;rotatable=0;points=[[0,0.5],[1,0.5]];portConstraint=eastwest;fontSize=11;fontFamily=Helvetica;fontColor=default;" parent="32nzAGSy19erSscVr2zR-81" vertex="1">
          <mxGeometry y="146" width="160" height="30" as="geometry" />
        </mxCell>
        <mxCell id="PsZriic9sOLCEWJr2VZp-129" style="edgeStyle=none;rounded=0;sketch=0;orthogonalLoop=1;jettySize=auto;html=1;shadow=0;strokeColor=default;endArrow=none;endFill=0;elbow=vertical;startArrow=none;" parent="1" source="XWmN3hp3CoIqbRZyM6_e-19" target="PsZriic9sOLCEWJr2VZp-1" edge="1">
          <mxGeometry relative="1" as="geometry">
            <mxPoint x="560" y="120" as="sourcePoint" />
          </mxGeometry>
        </mxCell>
        <mxCell id="PsZriic9sOLCEWJr2VZp-130" style="edgeStyle=none;rounded=0;sketch=0;orthogonalLoop=1;jettySize=auto;html=1;shadow=0;strokeColor=default;endArrow=none;endFill=0;elbow=vertical;startArrow=none;" parent="1" source="F8_96T87ZvqFcHofUjec-7" target="PsZriic9sOLCEWJr2VZp-87" edge="1">
          <mxGeometry relative="1" as="geometry" />
        </mxCell>
        <mxCell id="PsZriic9sOLCEWJr2VZp-128" value="subisce" style="shape=rhombus;perimeter=rhombusPerimeter;whiteSpace=wrap;html=1;align=center;" parent="1" vertex="1">
          <mxGeometry x="510" y="220" width="120" height="60" as="geometry" />
        </mxCell>
        <mxCell id="PsZriic9sOLCEWJr2VZp-132" style="edgeStyle=none;rounded=0;sketch=0;orthogonalLoop=1;jettySize=auto;html=1;shadow=0;strokeColor=default;endArrow=none;endFill=0;elbow=vertical;entryX=1;entryY=0.25;entryDx=0;entryDy=0;" parent="1" source="PsZriic9sOLCEWJr2VZp-131" target="PsZriic9sOLCEWJr2VZp-87" edge="1">
          <mxGeometry relative="1" as="geometry" />
        </mxCell>
        <mxCell id="PsZriic9sOLCEWJr2VZp-131" value="Flag" style="ellipse;whiteSpace=wrap;html=1;align=center;" parent="1" vertex="1">
          <mxGeometry x="520" y="310" width="100" height="40" as="geometry" />
        </mxCell>
        <mxCell id="PsZriic9sOLCEWJr2VZp-168" value="Flag puÃ² essere:&lt;br&gt;Privato o Pubblico" style="ellipse;shape=cloud;whiteSpace=wrap;html=1;align=center;" parent="1" vertex="1">
          <mxGeometry x="580" y="260" width="170" height="80" as="geometry" />
        </mxCell>
        <mxCell id="PsZriic9sOLCEWJr2VZp-169" value="Par_tecnici Ã¨ un attributo calcolato&lt;br&gt;dall&#39;analisi del file&lt;br&gt;che perÃ² manterremo come&lt;br&gt;ridondanza perchÃ© l&#39;analisi&lt;br&gt;&amp;nbsp;puÃ² essere onerosa" style="ellipse;shape=cloud;whiteSpace=wrap;html=1;align=center;" parent="1" vertex="1">
          <mxGeometry x="1010" y="715" width="340" height="135" as="geometry" />
        </mxCell>
        <mxCell id="1IZ161ZxLn-lMQVVHt22-3" value="Par_tecnici" style="swimlane;fontStyle=0;childLayout=stackLayout;horizontal=1;startSize=26;horizontalStack=0;resizeParent=1;resizeParentMax=0;resizeLast=0;collapsible=1;marginBottom=0;align=center;fontSize=14;" parent="1" vertex="1">
          <mxGeometry x="80" y="920" width="160" height="180" as="geometry" />
        </mxCell>
        <mxCell id="1IZ161ZxLn-lMQVVHt22-4" value="Tipo file&#xa;&#xa;" style="text;strokeColor=none;fillColor=none;spacingLeft=4;spacingRight=4;overflow=hidden;rotatable=0;points=[[0,0.5],[1,0.5]];portConstraint=eastwest;fontSize=12;" parent="1IZ161ZxLn-lMQVVHt22-3" vertex="1">
          <mxGeometry y="26" width="160" height="30" as="geometry" />
        </mxCell>
        <mxCell id="1IZ161ZxLn-lMQVVHt22-5" value="Nome file" style="text;strokeColor=none;fillColor=none;spacingLeft=4;spacingRight=4;overflow=hidden;rotatable=0;points=[[0,0.5],[1,0.5]];portConstraint=eastwest;fontSize=12;" parent="1IZ161ZxLn-lMQVVHt22-3" vertex="1">
          <mxGeometry y="56" width="160" height="30" as="geometry" />
        </mxCell>
        <mxCell id="1IZ161ZxLn-lMQVVHt22-6" value="Percorso file&#xa;&#xa;Dimensioni file&#xa;&#xa;Formato File" style="text;strokeColor=none;fillColor=none;spacingLeft=4;spacingRight=4;overflow=hidden;rotatable=0;points=[[0,0.5],[1,0.5]];portConstraint=eastwest;fontSize=12;" parent="1IZ161ZxLn-lMQVVHt22-3" vertex="1">
          <mxGeometry y="86" width="160" height="94" as="geometry" />
        </mxCell>
        <mxCell id="1IZ161ZxLn-lMQVVHt22-8" value="Sorgente Ã¨ il file caricato in binario oppure URL/URI" style="ellipse;shape=cloud;whiteSpace=wrap;html=1;align=center;" parent="1" vertex="1">
          <mxGeometry x="1047" y="645" width="180" height="75" as="geometry" />
        </mxCell>
        <mxCell id="8c4qTQshdFdAcqpc2uXH-1" value="Posizione dell&#39;immagine&lt;br&gt;fisica sul disco:&lt;br&gt;copertina,retro..." style="ellipse;shape=cloud;whiteSpace=wrap;html=1;align=center;" parent="1" vertex="1">
          <mxGeometry x="1020" y="542.5" width="180" height="95" as="geometry" />
        </mxCell>
        <mxCell id="F8_96T87ZvqFcHofUjec-2" value="" style="rounded=0;sketch=0;orthogonalLoop=1;jettySize=auto;html=1;shadow=0;strokeColor=default;endArrow=none;endFill=0;elbow=vertical;" parent="1" source="PsZriic9sOLCEWJr2VZp-1" target="F8_96T87ZvqFcHofUjec-1" edge="1">
          <mxGeometry relative="1" as="geometry">
            <mxPoint x="425" y="90" as="sourcePoint" />
            <mxPoint x="377" y="186" as="targetPoint" />
          </mxGeometry>
        </mxCell>
        <mxCell id="F8_96T87ZvqFcHofUjec-1" value="(1,N)" style="text;html=1;strokeColor=none;fillColor=none;align=center;verticalAlign=middle;whiteSpace=wrap;rounded=0;" parent="1" vertex="1">
          <mxGeometry x="365" y="100" width="60" height="30" as="geometry" />
        </mxCell>
        <mxCell id="F8_96T87ZvqFcHofUjec-4" value="" style="rounded=0;sketch=0;orthogonalLoop=1;jettySize=auto;html=1;shadow=0;strokeColor=default;endArrow=none;endFill=0;elbow=vertical;" parent="1" source="PsZriic9sOLCEWJr2VZp-87" target="F8_96T87ZvqFcHofUjec-3" edge="1">
          <mxGeometry relative="1" as="geometry">
            <mxPoint x="437.85714285714266" y="330" as="sourcePoint" />
            <mxPoint x="378.97260273972597" y="233.01369863013701" as="targetPoint" />
          </mxGeometry>
        </mxCell>
        <mxCell id="F8_96T87ZvqFcHofUjec-3" value="(1,1)" style="text;html=1;strokeColor=none;fillColor=none;align=center;verticalAlign=middle;whiteSpace=wrap;rounded=0;" parent="1" vertex="1">
          <mxGeometry x="330" y="240" width="60" height="30" as="geometry" />
        </mxCell>
        <mxCell id="F8_96T87ZvqFcHofUjec-6" value="" style="edgeStyle=none;rounded=0;sketch=0;orthogonalLoop=1;jettySize=auto;html=1;shadow=0;strokeColor=default;endArrow=none;endFill=0;elbow=vertical;" parent="1" source="XWmN3hp3CoIqbRZyM6_e-11" target="XWmN3hp3CoIqbRZyM6_e-1" edge="1">
          <mxGeometry relative="1" as="geometry">
            <mxPoint x="542.8571428571427" y="188.57142857142844" as="sourcePoint" />
            <mxPoint x="464" y="90" as="targetPoint" />
          </mxGeometry>
        </mxCell>
        <mxCell id="F8_96T87ZvqFcHofUjec-8" value="" style="edgeStyle=none;rounded=0;sketch=0;orthogonalLoop=1;jettySize=auto;html=1;shadow=0;strokeColor=default;endArrow=none;endFill=0;elbow=vertical;" parent="1" source="PsZriic9sOLCEWJr2VZp-128" target="F8_96T87ZvqFcHofUjec-7" edge="1">
          <mxGeometry relative="1" as="geometry">
            <mxPoint x="543.0769230769229" y="231.53846153846143" as="sourcePoint" />
            <mxPoint x="465.7142857142858" y="330" as="targetPoint" />
          </mxGeometry>
        </mxCell>
        <mxCell id="F8_96T87ZvqFcHofUjec-7" value="(0,N)" style="text;html=1;strokeColor=none;fillColor=none;align=center;verticalAlign=middle;whiteSpace=wrap;rounded=0;" parent="1" vertex="1">
          <mxGeometry x="450" y="290" width="60" height="30" as="geometry" />
        </mxCell>
        <mxCell id="F8_96T87ZvqFcHofUjec-10" value="" style="edgeStyle=none;rounded=0;sketch=0;orthogonalLoop=1;jettySize=auto;html=1;shadow=0;strokeColor=default;endArrow=none;endFill=0;elbow=vertical;entryX=0.5;entryY=0;entryDx=0;entryDy=0;" parent="1" source="PsZriic9sOLCEWJr2VZp-87" target="F8_96T87ZvqFcHofUjec-9" edge="1">
          <mxGeometry relative="1" as="geometry">
            <mxPoint x="448" y="370" as="sourcePoint" />
            <mxPoint x="440" y="450" as="targetPoint" />
          </mxGeometry>
        </mxCell>
        <mxCell id="F8_96T87ZvqFcHofUjec-9" value="(1,N)" style="text;html=1;strokeColor=none;fillColor=none;align=center;verticalAlign=middle;whiteSpace=wrap;rounded=0;" parent="1" vertex="1">
          <mxGeometry x="410" y="395" width="60" height="30" as="geometry" />
        </mxCell>
        <mxCell id="F8_96T87ZvqFcHofUjec-12" value="" style="edgeStyle=orthogonalEdgeStyle;rounded=0;orthogonalLoop=1;jettySize=auto;html=1;endArrow=none;" parent="1" source="PsZriic9sOLCEWJr2VZp-21" target="F8_96T87ZvqFcHofUjec-11" edge="1">
          <mxGeometry relative="1" as="geometry">
            <mxPoint x="440" y="530" as="sourcePoint" />
            <mxPoint x="440" y="600" as="targetPoint" />
          </mxGeometry>
        </mxCell>
        <mxCell id="F8_96T87ZvqFcHofUjec-11" value="(0,N)" style="text;html=1;strokeColor=none;fillColor=none;align=center;verticalAlign=middle;whiteSpace=wrap;rounded=0;" parent="1" vertex="1">
          <mxGeometry x="410" y="550" width="60" height="30" as="geometry" />
        </mxCell>
        <mxCell id="F8_96T87ZvqFcHofUjec-17" value="" style="edgeStyle=orthogonalEdgeStyle;rounded=0;orthogonalLoop=1;jettySize=auto;html=1;endArrow=none;" parent="1" target="F8_96T87ZvqFcHofUjec-13" edge="1">
          <mxGeometry relative="1" as="geometry">
            <mxPoint x="380" y="630" as="sourcePoint" />
            <mxPoint x="300" y="629.9999999999998" as="targetPoint" />
          </mxGeometry>
        </mxCell>
        <mxCell id="F8_96T87ZvqFcHofUjec-13" value="(1,N)" style="text;html=1;strokeColor=none;fillColor=none;align=center;verticalAlign=middle;whiteSpace=wrap;rounded=0;" parent="1" vertex="1">
          <mxGeometry x="305" y="615" width="60" height="30" as="geometry" />
        </mxCell>
        <mxCell id="F8_96T87ZvqFcHofUjec-19" value="" style="edgeStyle=orthogonalEdgeStyle;rounded=0;orthogonalLoop=1;jettySize=auto;html=1;endArrow=none;entryX=1;entryY=0.5;entryDx=0;entryDy=0;" parent="1" target="F8_96T87ZvqFcHofUjec-18" edge="1">
          <mxGeometry relative="1" as="geometry">
            <mxPoint x="120" y="629.9999999999998" as="targetPoint" />
            <mxPoint x="220" y="630" as="sourcePoint" />
          </mxGeometry>
        </mxCell>
        <mxCell id="F8_96T87ZvqFcHofUjec-18" value="(1,1)" style="text;html=1;strokeColor=none;fillColor=none;align=center;verticalAlign=middle;whiteSpace=wrap;rounded=0;" parent="1" vertex="1">
          <mxGeometry x="140" y="615" width="60" height="30" as="geometry" />
        </mxCell>
        <mxCell id="F8_96T87ZvqFcHofUjec-25" value="REGOLE DI VINCOLO&#xa;" style="swimlane;startSize=0;" parent="1" vertex="1">
          <mxGeometry x="560" y="1000" width="250" height="215" as="geometry">
            <mxRectangle x="560" y="1000" width="160" height="30" as="alternateBounds" />
          </mxGeometry>
        </mxCell>
        <mxCell id="F8_96T87ZvqFcHofUjec-26" value="il numero di collezioni condivise non&amp;nbsp;&lt;br&gt;puÃ² superare il numero di collezioni totali&lt;br&gt;possedute dal collezionista&lt;br&gt;&amp;nbsp;" style="text;html=1;align=center;verticalAlign=middle;resizable=0;points=[];autosize=1;strokeColor=none;fillColor=none;" parent="F8_96T87ZvqFcHofUjec-25" vertex="1">
          <mxGeometry x="-2.5" y="5" width="240" height="70" as="geometry" />
        </mxCell>
        <mxCell id="F8_96T87ZvqFcHofUjec-27" value="un collezionista non puÃ² condividere la&amp;nbsp;&lt;br&gt;stessa collezione con un altro utente&amp;nbsp;&lt;br&gt;contemporaneamente" style="text;html=1;align=center;verticalAlign=middle;resizable=0;points=[];autosize=1;strokeColor=none;fillColor=none;" parent="F8_96T87ZvqFcHofUjec-25" vertex="1">
          <mxGeometry x="2.5" y="60" width="230" height="60" as="geometry" />
        </mxCell>
        <mxCell id="F8_96T87ZvqFcHofUjec-28" value="una collezione non puÃ² essere formata da&amp;nbsp;&lt;br&gt;un numero di dischi superiore a quelli&lt;br&gt;posseduti" style="text;html=1;align=center;verticalAlign=middle;resizable=0;points=[];autosize=1;strokeColor=none;fillColor=none;" parent="F8_96T87ZvqFcHofUjec-25" vertex="1">
          <mxGeometry x="-7.5" y="125" width="250" height="60" as="geometry" />
        </mxCell>
        <mxCell id="32nzAGSy19erSscVr2zR-36" value="Il nome della collezione deve essere unico" style="text;html=1;align=center;verticalAlign=middle;resizable=0;points=[];autosize=1;strokeColor=none;fillColor=none;" parent="F8_96T87ZvqFcHofUjec-25" vertex="1">
          <mxGeometry y="185" width="250" height="30" as="geometry" />
        </mxCell>
        <mxCell id="32nzAGSy19erSscVr2zR-5" value="" style="edgeStyle=orthogonalEdgeStyle;rounded=0;orthogonalLoop=1;jettySize=auto;html=1;endArrow=none;sketch=0;shadow=0;endFill=0;startArrow=none;" parent="1" source="32nzAGSy19erSscVr2zR-7" target="32nzAGSy19erSscVr2zR-4" edge="1">
          <mxGeometry relative="1" as="geometry">
            <Array as="points">
              <mxPoint x="-40" y="400" />
            </Array>
          </mxGeometry>
        </mxCell>
        <mxCell id="32nzAGSy19erSscVr2zR-1" value="Artista" style="rounded=0;whiteSpace=wrap;html=1;" parent="1" vertex="1">
          <mxGeometry y="320" width="120" height="60" as="geometry" />
        </mxCell>
        <mxCell id="32nzAGSy19erSscVr2zR-2" value="Copia" style="rounded=0;whiteSpace=wrap;html=1;" parent="1" vertex="1">
          <mxGeometry x="680" y="390" width="120" height="60" as="geometry" />
        </mxCell>
        <mxCell id="32nzAGSy19erSscVr2zR-20" value="" style="edgeStyle=none;shape=connector;rounded=0;sketch=0;orthogonalLoop=1;jettySize=auto;html=1;shadow=0;labelBackgroundColor=default;strokeColor=default;fontFamily=Helvetica;fontSize=11;fontColor=default;endArrow=none;endFill=0;elbow=vertical;startArrow=none;" parent="1" source="32nzAGSy19erSscVr2zR-22" target="32nzAGSy19erSscVr2zR-19" edge="1">
          <mxGeometry relative="1" as="geometry" />
        </mxCell>
        <mxCell id="32nzAGSy19erSscVr2zR-3" value="Etichetta" style="rounded=0;whiteSpace=wrap;html=1;" parent="1" vertex="1">
          <mxGeometry x="580" y="830" width="120" height="60" as="geometry" />
        </mxCell>
        <mxCell id="32nzAGSy19erSscVr2zR-6" value="" style="edgeStyle=orthogonalEdgeStyle;rounded=0;orthogonalLoop=1;jettySize=auto;html=1;endArrow=none;sketch=0;shadow=0;endFill=0;startArrow=none;" parent="1" source="32nzAGSy19erSscVr2zR-9" edge="1">
          <mxGeometry relative="1" as="geometry">
            <mxPoint x="60" y="600" as="targetPoint" />
          </mxGeometry>
        </mxCell>
        <mxCell id="32nzAGSy19erSscVr2zR-4" value="compone" style="rhombus;whiteSpace=wrap;html=1;rounded=0;" parent="1" vertex="1">
          <mxGeometry x="-80" y="435.25" width="80" height="80" as="geometry" />
        </mxCell>
        <mxCell id="32nzAGSy19erSscVr2zR-8" value="" style="edgeStyle=orthogonalEdgeStyle;rounded=0;orthogonalLoop=1;jettySize=auto;html=1;endArrow=none;sketch=0;shadow=0;endFill=0;exitX=0.5;exitY=1;exitDx=0;exitDy=0;entryX=1;entryY=0.5;entryDx=0;entryDy=0;" parent="1" source="32nzAGSy19erSscVr2zR-1" target="32nzAGSy19erSscVr2zR-7" edge="1">
          <mxGeometry relative="1" as="geometry">
            <mxPoint x="60" y="380" as="sourcePoint" />
            <mxPoint x="60" y="450" as="targetPoint" />
            <Array as="points">
              <mxPoint x="60" y="400" />
              <mxPoint x="30" y="400" />
            </Array>
          </mxGeometry>
        </mxCell>
        <mxCell id="32nzAGSy19erSscVr2zR-7" value="(1,N)" style="text;html=1;strokeColor=none;fillColor=none;align=center;verticalAlign=middle;whiteSpace=wrap;rounded=0;fontSize=11;fontFamily=Helvetica;fontColor=default;" parent="1" vertex="1">
          <mxGeometry x="-30" y="390" width="60" height="30" as="geometry" />
        </mxCell>
        <mxCell id="32nzAGSy19erSscVr2zR-10" value="" style="edgeStyle=orthogonalEdgeStyle;rounded=0;orthogonalLoop=1;jettySize=auto;html=1;endArrow=none;sketch=0;shadow=0;endFill=0;" parent="1" source="32nzAGSy19erSscVr2zR-4" target="32nzAGSy19erSscVr2zR-9" edge="1">
          <mxGeometry relative="1" as="geometry">
            <mxPoint x="-40" y="515.25" as="sourcePoint" />
            <mxPoint x="-40" y="585.25" as="targetPoint" />
          </mxGeometry>
        </mxCell>
        <mxCell id="32nzAGSy19erSscVr2zR-9" value="(1,N)" style="text;html=1;strokeColor=none;fillColor=none;align=center;verticalAlign=middle;whiteSpace=wrap;rounded=0;fontSize=11;fontFamily=Helvetica;fontColor=default;" parent="1" vertex="1">
          <mxGeometry x="-70" y="535.25" width="60" height="30" as="geometry" />
        </mxCell>
        <mxCell id="32nzAGSy19erSscVr2zR-21" value="" style="edgeStyle=none;shape=connector;rounded=0;sketch=0;orthogonalLoop=1;jettySize=auto;html=1;shadow=0;labelBackgroundColor=default;strokeColor=default;fontFamily=Helvetica;fontSize=11;fontColor=default;endArrow=none;endFill=0;elbow=vertical;entryX=0.567;entryY=1.027;entryDx=0;entryDy=0;entryPerimeter=0;startArrow=none;" parent="1" source="32nzAGSy19erSscVr2zR-24" target="PsZriic9sOLCEWJr2VZp-3" edge="1">
          <mxGeometry relative="1" as="geometry" />
        </mxCell>
        <mxCell id="32nzAGSy19erSscVr2zR-19" value="produce" style="rhombus;whiteSpace=wrap;html=1;rounded=0;" parent="1" vertex="1">
          <mxGeometry x="510" y="720" width="80" height="80" as="geometry" />
        </mxCell>
        <mxCell id="32nzAGSy19erSscVr2zR-23" value="" style="edgeStyle=none;shape=connector;rounded=0;sketch=0;orthogonalLoop=1;jettySize=auto;html=1;shadow=0;labelBackgroundColor=default;strokeColor=default;fontFamily=Helvetica;fontSize=11;fontColor=default;endArrow=none;endFill=0;elbow=vertical;" parent="1" source="32nzAGSy19erSscVr2zR-3" target="32nzAGSy19erSscVr2zR-22" edge="1">
          <mxGeometry relative="1" as="geometry">
            <mxPoint x="613" y="830" as="sourcePoint" />
            <mxPoint x="568.9473684210525" y="781.0526315789473" as="targetPoint" />
          </mxGeometry>
        </mxCell>
        <mxCell id="32nzAGSy19erSscVr2zR-22" value="(1,N)" style="text;html=1;strokeColor=none;fillColor=none;align=center;verticalAlign=middle;whiteSpace=wrap;rounded=0;" parent="1" vertex="1">
          <mxGeometry x="557.5" y="790" width="60" height="30" as="geometry" />
        </mxCell>
        <mxCell id="32nzAGSy19erSscVr2zR-25" value="" style="edgeStyle=none;shape=connector;rounded=0;sketch=0;orthogonalLoop=1;jettySize=auto;html=1;shadow=0;labelBackgroundColor=default;strokeColor=default;fontFamily=Helvetica;fontSize=11;fontColor=default;endArrow=none;endFill=0;elbow=vertical;entryX=0.567;entryY=1.027;entryDx=0;entryDy=0;entryPerimeter=0;" parent="1" source="32nzAGSy19erSscVr2zR-19" target="32nzAGSy19erSscVr2zR-24" edge="1">
          <mxGeometry relative="1" as="geometry">
            <mxPoint x="529.6426075671357" y="740.3573924328641" as="sourcePoint" />
            <mxPoint x="448.03999999999996" y="661.6199999999999" as="targetPoint" />
          </mxGeometry>
        </mxCell>
        <mxCell id="32nzAGSy19erSscVr2zR-24" value="(1,1)" style="text;html=1;strokeColor=none;fillColor=none;align=center;verticalAlign=middle;whiteSpace=wrap;rounded=0;" parent="1" vertex="1">
          <mxGeometry x="450" y="670" width="60" height="30" as="geometry" />
        </mxCell>
        <mxCell id="32nzAGSy19erSscVr2zR-46" style="edgeStyle=none;shape=connector;rounded=0;sketch=0;orthogonalLoop=1;jettySize=auto;html=1;entryX=1;entryY=0;entryDx=0;entryDy=0;shadow=0;labelBackgroundColor=default;strokeColor=default;fontFamily=Helvetica;fontSize=11;fontColor=default;endArrow=none;endFill=0;elbow=vertical;startArrow=none;" parent="1" source="32nzAGSy19erSscVr2zR-30" target="PsZriic9sOLCEWJr2VZp-3" edge="1">
          <mxGeometry relative="1" as="geometry" />
        </mxCell>
        <mxCell id="32nzAGSy19erSscVr2zR-47" style="edgeStyle=none;shape=connector;rounded=0;sketch=0;orthogonalLoop=1;jettySize=auto;html=1;shadow=0;labelBackgroundColor=default;strokeColor=default;fontFamily=Helvetica;fontSize=11;fontColor=default;endArrow=none;endFill=0;elbow=vertical;startArrow=none;" parent="1" source="32nzAGSy19erSscVr2zR-32" target="32nzAGSy19erSscVr2zR-2" edge="1">
          <mxGeometry relative="1" as="geometry" />
        </mxCell>
        <mxCell id="32nzAGSy19erSscVr2zR-26" value="quantizza" style="rhombus;whiteSpace=wrap;html=1;rounded=0;" parent="1" vertex="1">
          <mxGeometry x="625" y="502.5" width="80" height="80" as="geometry" />
        </mxCell>
        <mxCell id="32nzAGSy19erSscVr2zR-48" value="" style="edgeStyle=none;shape=connector;rounded=0;sketch=0;orthogonalLoop=1;jettySize=auto;html=1;shadow=0;labelBackgroundColor=default;strokeColor=default;fontFamily=Helvetica;fontSize=11;fontColor=default;endArrow=none;endFill=0;elbow=vertical;" parent="1" source="32nzAGSy19erSscVr2zR-26" target="32nzAGSy19erSscVr2zR-32" edge="1">
          <mxGeometry relative="1" as="geometry">
            <mxPoint x="681.5079365079364" y="519.0079365079364" as="sourcePoint" />
            <mxPoint x="708.9189189189187" y="480" as="targetPoint" />
          </mxGeometry>
        </mxCell>
        <mxCell id="32nzAGSy19erSscVr2zR-32" value="(1,1)" style="text;html=1;strokeColor=none;fillColor=none;align=center;verticalAlign=middle;whiteSpace=wrap;rounded=0;" parent="1" vertex="1">
          <mxGeometry x="670" y="480" width="60" height="30" as="geometry" />
        </mxCell>
        <mxCell id="32nzAGSy19erSscVr2zR-49" value="" style="edgeStyle=none;shape=connector;rounded=0;sketch=0;orthogonalLoop=1;jettySize=auto;html=1;entryX=1;entryY=0;entryDx=0;entryDy=0;shadow=0;labelBackgroundColor=default;strokeColor=default;fontFamily=Helvetica;fontSize=11;fontColor=default;endArrow=none;endFill=0;elbow=vertical;" parent="1" source="32nzAGSy19erSscVr2zR-26" target="32nzAGSy19erSscVr2zR-30" edge="1">
          <mxGeometry relative="1" as="geometry">
            <mxPoint x="635.3370786516853" y="552.8370786516855" as="sourcePoint" />
            <mxPoint x="500" y="600" as="targetPoint" />
          </mxGeometry>
        </mxCell>
        <mxCell id="32nzAGSy19erSscVr2zR-30" value="(0,N)" style="text;html=1;strokeColor=none;fillColor=none;align=center;verticalAlign=middle;whiteSpace=wrap;rounded=0;" parent="1" vertex="1">
          <mxGeometry x="537.5" y="560" width="60" height="30" as="geometry" />
        </mxCell>
        <mxCell id="32nzAGSy19erSscVr2zR-51" value="" style="edgeStyle=none;shape=connector;rounded=0;sketch=0;orthogonalLoop=1;jettySize=auto;html=1;shadow=0;labelBackgroundColor=default;strokeColor=default;fontFamily=Helvetica;fontSize=11;fontColor=default;endArrow=none;endFill=0;elbow=vertical;" parent="1" source="PsZriic9sOLCEWJr2VZp-24" edge="1">
          <mxGeometry relative="1" as="geometry">
            <mxPoint x="649.3942614240168" y="675.855738575983" as="sourcePoint" />
            <mxPoint x="590" y="660" as="targetPoint" />
          </mxGeometry>
        </mxCell>
        <mxCell id="F8_96T87ZvqFcHofUjec-20" value="(0,N)" style="text;html=1;strokeColor=none;fillColor=none;align=center;verticalAlign=middle;whiteSpace=wrap;rounded=0;" parent="1" vertex="1">
          <mxGeometry x="537.5" y="640" width="60" height="30" as="geometry" />
        </mxCell>
        <mxCell id="32nzAGSy19erSscVr2zR-54" value="" style="edgeStyle=none;shape=connector;rounded=0;sketch=0;orthogonalLoop=1;jettySize=auto;html=1;shadow=0;labelBackgroundColor=default;strokeColor=default;fontFamily=Helvetica;fontSize=11;fontColor=default;endArrow=none;endFill=0;elbow=vertical;" parent="1" source="PsZriic9sOLCEWJr2VZp-4" target="F8_96T87ZvqFcHofUjec-22" edge="1">
          <mxGeometry relative="1" as="geometry">
            <mxPoint x="810" y="685.25" as="sourcePoint" />
            <mxPoint x="720" y="685.25" as="targetPoint" />
          </mxGeometry>
        </mxCell>
        <mxCell id="F8_96T87ZvqFcHofUjec-22" value="(1,1)" style="text;html=1;strokeColor=none;fillColor=none;align=center;verticalAlign=middle;whiteSpace=wrap;rounded=0;" parent="1" vertex="1">
          <mxGeometry x="730" y="670" width="60" height="30" as="geometry" />
        </mxCell>
        <mxCell id="32nzAGSy19erSscVr2zR-58" style="edgeStyle=none;shape=connector;rounded=0;sketch=0;orthogonalLoop=1;jettySize=auto;html=1;shadow=0;labelBackgroundColor=default;strokeColor=default;fontFamily=Helvetica;fontSize=11;fontColor=default;endArrow=none;endFill=0;elbow=vertical;" parent="1" source="32nzAGSy19erSscVr2zR-57" target="32nzAGSy19erSscVr2zR-1" edge="1">
          <mxGeometry relative="1" as="geometry" />
        </mxCell>
        <mxCell id="32nzAGSy19erSscVr2zR-57" value="Nome" style="ellipse;whiteSpace=wrap;html=1;align=center;fontFamily=Helvetica;fontSize=11;fontColor=default;" parent="1" vertex="1">
          <mxGeometry x="-130" y="290" width="100" height="40" as="geometry" />
        </mxCell>
        <mxCell id="32nzAGSy19erSscVr2zR-63" style="edgeStyle=none;shape=connector;rounded=0;sketch=0;orthogonalLoop=1;jettySize=auto;html=1;entryX=0.75;entryY=0;entryDx=0;entryDy=0;shadow=0;labelBackgroundColor=default;strokeColor=default;fontFamily=Helvetica;fontSize=11;fontColor=default;endArrow=none;endFill=0;elbow=vertical;" parent="1" source="32nzAGSy19erSscVr2zR-61" target="32nzAGSy19erSscVr2zR-2" edge="1">
          <mxGeometry relative="1" as="geometry" />
        </mxCell>
        <mxCell id="32nzAGSy19erSscVr2zR-61" value="Stato di conservazione" style="ellipse;whiteSpace=wrap;html=1;align=center;fontFamily=Helvetica;fontSize=11;fontColor=default;" parent="1" vertex="1">
          <mxGeometry x="820" y="330" width="100" height="40" as="geometry" />
        </mxCell>
        <mxCell id="32nzAGSy19erSscVr2zR-72" style="edgeStyle=none;shape=connector;rounded=0;sketch=0;orthogonalLoop=1;jettySize=auto;html=1;shadow=0;labelBackgroundColor=default;strokeColor=default;fontFamily=Helvetica;fontSize=11;fontColor=default;endArrow=none;endFill=0;elbow=vertical;" parent="1" source="32nzAGSy19erSscVr2zR-66" target="32nzAGSy19erSscVr2zR-3" edge="1">
          <mxGeometry relative="1" as="geometry" />
        </mxCell>
        <mxCell id="32nzAGSy19erSscVr2zR-66" value="P. IVA" style="ellipse;whiteSpace=wrap;html=1;align=center;fontFamily=Helvetica;fontSize=11;fontColor=default;" parent="1" vertex="1">
          <mxGeometry x="730" y="810" width="100" height="40" as="geometry" />
        </mxCell>
        <mxCell id="32nzAGSy19erSscVr2zR-70" style="edgeStyle=none;shape=connector;rounded=0;sketch=0;orthogonalLoop=1;jettySize=auto;html=1;shadow=0;labelBackgroundColor=default;strokeColor=default;fontFamily=Helvetica;fontSize=11;fontColor=default;endArrow=none;endFill=0;elbow=vertical;" parent="1" source="32nzAGSy19erSscVr2zR-67" target="32nzAGSy19erSscVr2zR-3" edge="1">
          <mxGeometry relative="1" as="geometry" />
        </mxCell>
        <mxCell id="32nzAGSy19erSscVr2zR-67" value="Nome" style="ellipse;whiteSpace=wrap;html=1;align=center;fontStyle=4;fontFamily=Helvetica;fontSize=11;fontColor=default;" parent="1" vertex="1">
          <mxGeometry x="730" y="880" width="100" height="40" as="geometry" />
        </mxCell>
        <mxCell id="32nzAGSy19erSscVr2zR-69" style="edgeStyle=none;shape=connector;rounded=0;sketch=0;orthogonalLoop=1;jettySize=auto;html=1;shadow=0;labelBackgroundColor=default;strokeColor=default;fontFamily=Helvetica;fontSize=11;fontColor=default;endArrow=none;endFill=0;elbow=vertical;" parent="1" source="32nzAGSy19erSscVr2zR-68" target="32nzAGSy19erSscVr2zR-3" edge="1">
          <mxGeometry relative="1" as="geometry" />
        </mxCell>
        <mxCell id="32nzAGSy19erSscVr2zR-68" value="Sede" style="ellipse;whiteSpace=wrap;html=1;align=center;fontFamily=Helvetica;fontSize=11;fontColor=default;" parent="1" vertex="1">
          <mxGeometry x="635" y="920" width="100" height="40" as="geometry" />
        </mxCell>
        <mxCell id="32nzAGSy19erSscVr2zR-87" value="Lista dei generi(ENUM)" style="swimlane;fontStyle=0;childLayout=stackLayout;horizontal=1;startSize=26;horizontalStack=0;resizeParent=1;resizeParentMax=0;resizeLast=0;collapsible=1;marginBottom=0;align=center;fontSize=14;fontFamily=Helvetica;fontColor=default;" parent="1" vertex="1">
          <mxGeometry x="305" y="920" width="160" height="476" as="geometry" />
        </mxCell>
        <mxCell id="32nzAGSy19erSscVr2zR-88" value="Rock&#xa;" style="text;strokeColor=none;fillColor=none;spacingLeft=4;spacingRight=4;overflow=hidden;rotatable=0;points=[[0,0.5],[1,0.5]];portConstraint=eastwest;fontSize=11;fontFamily=Helvetica;fontColor=default;" parent="32nzAGSy19erSscVr2zR-87" vertex="1">
          <mxGeometry y="26" width="160" height="30" as="geometry" />
        </mxCell>
        <mxCell id="32nzAGSy19erSscVr2zR-89" value="Pop" style="text;strokeColor=none;fillColor=none;spacingLeft=4;spacingRight=4;overflow=hidden;rotatable=0;points=[[0,0.5],[1,0.5]];portConstraint=eastwest;fontSize=11;fontFamily=Helvetica;fontColor=default;" parent="32nzAGSy19erSscVr2zR-87" vertex="1">
          <mxGeometry y="56" width="160" height="30" as="geometry" />
        </mxCell>
        <mxCell id="32nzAGSy19erSscVr2zR-90" value="Metal" style="text;strokeColor=none;fillColor=none;spacingLeft=4;spacingRight=4;overflow=hidden;rotatable=0;points=[[0,0.5],[1,0.5]];portConstraint=eastwest;fontSize=11;fontFamily=Helvetica;fontColor=default;" parent="32nzAGSy19erSscVr2zR-87" vertex="1">
          <mxGeometry y="86" width="160" height="30" as="geometry" />
        </mxCell>
        <mxCell id="32nzAGSy19erSscVr2zR-96" value="Reggaeton" style="text;strokeColor=none;fillColor=none;spacingLeft=4;spacingRight=4;overflow=hidden;rotatable=0;points=[[0,0.5],[1,0.5]];portConstraint=eastwest;fontSize=11;fontFamily=Helvetica;fontColor=default;" parent="32nzAGSy19erSscVr2zR-87" vertex="1">
          <mxGeometry y="116" width="160" height="30" as="geometry" />
        </mxCell>
        <mxCell id="32nzAGSy19erSscVr2zR-97" value="Rap" style="text;strokeColor=none;fillColor=none;spacingLeft=4;spacingRight=4;overflow=hidden;rotatable=0;points=[[0,0.5],[1,0.5]];portConstraint=eastwest;fontSize=11;fontFamily=Helvetica;fontColor=default;" parent="32nzAGSy19erSscVr2zR-87" vertex="1">
          <mxGeometry y="146" width="160" height="30" as="geometry" />
        </mxCell>
        <mxCell id="32nzAGSy19erSscVr2zR-98" value="Opera" style="text;strokeColor=none;fillColor=none;spacingLeft=4;spacingRight=4;overflow=hidden;rotatable=0;points=[[0,0.5],[1,0.5]];portConstraint=eastwest;fontSize=11;fontFamily=Helvetica;fontColor=default;" parent="32nzAGSy19erSscVr2zR-87" vertex="1">
          <mxGeometry y="176" width="160" height="30" as="geometry" />
        </mxCell>
        <mxCell id="32nzAGSy19erSscVr2zR-99" value="Blues" style="text;strokeColor=none;fillColor=none;spacingLeft=4;spacingRight=4;overflow=hidden;rotatable=0;points=[[0,0.5],[1,0.5]];portConstraint=eastwest;fontSize=11;fontFamily=Helvetica;fontColor=default;" parent="32nzAGSy19erSscVr2zR-87" vertex="1">
          <mxGeometry y="206" width="160" height="30" as="geometry" />
        </mxCell>
        <mxCell id="32nzAGSy19erSscVr2zR-100" value="Punk" style="text;strokeColor=none;fillColor=none;spacingLeft=4;spacingRight=4;overflow=hidden;rotatable=0;points=[[0,0.5],[1,0.5]];portConstraint=eastwest;fontSize=11;fontFamily=Helvetica;fontColor=default;" parent="32nzAGSy19erSscVr2zR-87" vertex="1">
          <mxGeometry y="236" width="160" height="30" as="geometry" />
        </mxCell>
        <mxCell id="32nzAGSy19erSscVr2zR-101" value="Alternative" style="text;strokeColor=none;fillColor=none;spacingLeft=4;spacingRight=4;overflow=hidden;rotatable=0;points=[[0,0.5],[1,0.5]];portConstraint=eastwest;fontSize=11;fontFamily=Helvetica;fontColor=default;" parent="32nzAGSy19erSscVr2zR-87" vertex="1">
          <mxGeometry y="266" width="160" height="30" as="geometry" />
        </mxCell>
        <mxCell id="32nzAGSy19erSscVr2zR-102" value="Crossover" style="text;strokeColor=none;fillColor=none;spacingLeft=4;spacingRight=4;overflow=hidden;rotatable=0;points=[[0,0.5],[1,0.5]];portConstraint=eastwest;fontSize=11;fontFamily=Helvetica;fontColor=default;" parent="32nzAGSy19erSscVr2zR-87" vertex="1">
          <mxGeometry y="296" width="160" height="30" as="geometry" />
        </mxCell>
        <mxCell id="32nzAGSy19erSscVr2zR-104" value="Musica classica" style="text;strokeColor=none;fillColor=none;spacingLeft=4;spacingRight=4;overflow=hidden;rotatable=0;points=[[0,0.5],[1,0.5]];portConstraint=eastwest;fontSize=11;fontFamily=Helvetica;fontColor=default;" parent="32nzAGSy19erSscVr2zR-87" vertex="1">
          <mxGeometry y="326" width="160" height="30" as="geometry" />
        </mxCell>
        <mxCell id="32nzAGSy19erSscVr2zR-103" value="Folk" style="text;strokeColor=none;fillColor=none;spacingLeft=4;spacingRight=4;overflow=hidden;rotatable=0;points=[[0,0.5],[1,0.5]];portConstraint=eastwest;fontSize=11;fontFamily=Helvetica;fontColor=default;" parent="32nzAGSy19erSscVr2zR-87" vertex="1">
          <mxGeometry y="356" width="160" height="30" as="geometry" />
        </mxCell>
        <mxCell id="32nzAGSy19erSscVr2zR-106" value="Jazz" style="text;strokeColor=none;fillColor=none;spacingLeft=4;spacingRight=4;overflow=hidden;rotatable=0;points=[[0,0.5],[1,0.5]];portConstraint=eastwest;fontSize=11;fontFamily=Helvetica;fontColor=default;" parent="32nzAGSy19erSscVr2zR-87" vertex="1">
          <mxGeometry y="386" width="160" height="30" as="geometry" />
        </mxCell>
        <mxCell id="32nzAGSy19erSscVr2zR-105" value="Elettronica" style="text;strokeColor=none;fillColor=none;spacingLeft=4;spacingRight=4;overflow=hidden;rotatable=0;points=[[0,0.5],[1,0.5]];portConstraint=eastwest;fontSize=11;fontFamily=Helvetica;fontColor=default;" parent="32nzAGSy19erSscVr2zR-87" vertex="1">
          <mxGeometry y="416" width="160" height="30" as="geometry" />
        </mxCell>
        <mxCell id="32nzAGSy19erSscVr2zR-109" value="Musical" style="text;strokeColor=none;fillColor=none;spacingLeft=4;spacingRight=4;overflow=hidden;rotatable=0;points=[[0,0.5],[1,0.5]];portConstraint=eastwest;fontSize=11;fontFamily=Helvetica;fontColor=default;" parent="32nzAGSy19erSscVr2zR-87" vertex="1">
          <mxGeometry y="446" width="160" height="30" as="geometry" />
        </mxCell>
        <mxCell id="32nzAGSy19erSscVr2zR-93" value="Genere" style="ellipse;whiteSpace=wrap;html=1;align=center;" parent="1" vertex="1">
          <mxGeometry x="-170" y="565.25" width="100" height="40" as="geometry" />
        </mxCell>
        <mxCell id="32nzAGSy19erSscVr2zR-94" style="edgeStyle=none;shape=connector;rounded=0;sketch=0;orthogonalLoop=1;jettySize=auto;html=1;exitX=0.5;exitY=1;exitDx=0;exitDy=0;shadow=0;labelBackgroundColor=default;strokeColor=default;fontFamily=Helvetica;fontSize=11;fontColor=default;endArrow=none;endFill=0;elbow=vertical;" parent="1" source="PsZriic9sOLCEWJr2VZp-100" target="PsZriic9sOLCEWJr2VZp-100" edge="1">
          <mxGeometry relative="1" as="geometry" />
        </mxCell>
        <mxCell id="32nzAGSy19erSscVr2zR-107" value="Brano" style="shape=ext;margin=3;double=1;whiteSpace=wrap;html=1;align=center;fontFamily=Helvetica;fontSize=11;fontColor=default;" parent="1" vertex="1">
          <mxGeometry y="593.75" width="130" height="72.5" as="geometry" />
        </mxCell>
        <mxCell id="32nzAGSy19erSscVr2zR-108" value="Forma" style="shape=rhombus;double=1;perimeter=rhombusPerimeter;whiteSpace=wrap;html=1;align=center;" parent="1" vertex="1">
          <mxGeometry x="220" y="600" width="70" height="60" as="geometry" />
        </mxCell>
        <mxCell id="32nzAGSy19erSscVr2zR-123" style="edgeStyle=none;shape=connector;rounded=0;sketch=0;orthogonalLoop=1;jettySize=auto;html=1;entryX=0.575;entryY=1.013;entryDx=0;entryDy=0;entryPerimeter=0;shadow=0;labelBackgroundColor=default;strokeColor=default;fontFamily=Helvetica;fontSize=11;fontColor=default;endArrow=none;endFill=0;elbow=vertical;" parent="1" target="32nzAGSy19erSscVr2zR-1" edge="1">
          <mxGeometry relative="1" as="geometry">
            <mxPoint x="170" y="400" as="sourcePoint" />
            <Array as="points">
              <mxPoint x="140" y="400" />
              <mxPoint x="120" y="400" />
              <mxPoint x="70" y="400" />
            </Array>
          </mxGeometry>
        </mxCell>
        <mxCell id="32nzAGSy19erSscVr2zR-124" style="edgeStyle=none;shape=connector;rounded=0;sketch=0;orthogonalLoop=1;jettySize=auto;html=1;shadow=0;labelBackgroundColor=default;strokeColor=default;fontFamily=Helvetica;fontSize=11;fontColor=default;endArrow=none;endFill=0;elbow=vertical;" parent="1" source="32nzAGSy19erSscVr2zR-120" edge="1">
          <mxGeometry relative="1" as="geometry">
            <mxPoint x="170" y="400" as="targetPoint" />
          </mxGeometry>
        </mxCell>
        <mxCell id="32nzAGSy19erSscVr2zR-125" style="edgeStyle=none;shape=connector;rounded=0;sketch=0;orthogonalLoop=1;jettySize=auto;html=1;entryX=0.592;entryY=-0.002;entryDx=0;entryDy=0;entryPerimeter=0;shadow=0;labelBackgroundColor=default;strokeColor=default;fontFamily=Helvetica;fontSize=11;fontColor=default;endArrow=none;endFill=0;elbow=vertical;" parent="1" target="32nzAGSy19erSscVr2zR-107" edge="1">
          <mxGeometry relative="1" as="geometry">
            <mxPoint x="170" y="550" as="sourcePoint" />
            <Array as="points">
              <mxPoint x="77" y="550" />
            </Array>
          </mxGeometry>
        </mxCell>
        <mxCell id="32nzAGSy19erSscVr2zR-126" style="edgeStyle=none;shape=connector;rounded=0;sketch=0;orthogonalLoop=1;jettySize=auto;html=1;shadow=0;labelBackgroundColor=default;strokeColor=default;fontFamily=Helvetica;fontSize=11;fontColor=default;endArrow=none;endFill=0;elbow=vertical;" parent="1" source="32nzAGSy19erSscVr2zR-120" edge="1">
          <mxGeometry relative="1" as="geometry">
            <mxPoint x="170" y="550" as="targetPoint" />
          </mxGeometry>
        </mxCell>
        <mxCell id="32nzAGSy19erSscVr2zR-120" value="esegue" style="rhombus;whiteSpace=wrap;html=1;fontSize=11;" parent="1" vertex="1">
          <mxGeometry x="130" y="440.5" width="80" height="74.75" as="geometry" />
        </mxCell>
        <mxCell id="32nzAGSy19erSscVr2zR-127" value="(1,N)" style="text;html=1;strokeColor=none;fillColor=none;align=center;verticalAlign=middle;whiteSpace=wrap;rounded=0;fontSize=11;fontFamily=Helvetica;fontColor=default;" parent="1" vertex="1">
          <mxGeometry x="90" y="390" width="60" height="30" as="geometry" />
        </mxCell>
        <mxCell id="32nzAGSy19erSscVr2zR-132" value="(1,N)" style="text;html=1;strokeColor=none;fillColor=none;align=center;verticalAlign=middle;whiteSpace=wrap;rounded=0;fontSize=11;fontFamily=Helvetica;fontColor=default;" parent="1" vertex="1">
          <mxGeometry x="100" y="515.25" width="60" height="30" as="geometry" />
        </mxCell>
        <mxCell id="32nzAGSy19erSscVr2zR-136" style="edgeStyle=none;shape=connector;rounded=0;sketch=0;orthogonalLoop=1;jettySize=auto;html=1;entryX=1;entryY=0.5;entryDx=0;entryDy=0;shadow=0;labelBackgroundColor=default;strokeColor=default;fontFamily=Helvetica;fontSize=11;fontColor=default;endArrow=none;endFill=0;elbow=vertical;startArrow=none;" parent="1" source="32nzAGSy19erSscVr2zR-138" target="32nzAGSy19erSscVr2zR-1" edge="1">
          <mxGeometry relative="1" as="geometry">
            <Array as="points" />
          </mxGeometry>
        </mxCell>
        <mxCell id="32nzAGSy19erSscVr2zR-137" value="" style="edgeStyle=none;shape=connector;rounded=0;sketch=0;orthogonalLoop=1;jettySize=auto;html=1;shadow=0;labelBackgroundColor=default;strokeColor=default;fontFamily=Helvetica;fontSize=11;fontColor=default;endArrow=none;endFill=0;elbow=vertical;entryX=0.155;entryY=0;entryDx=0;entryDy=0;entryPerimeter=0;startArrow=none;" parent="1" source="32nzAGSy19erSscVr2zR-140" target="PsZriic9sOLCEWJr2VZp-3" edge="1">
          <mxGeometry relative="1" as="geometry">
            <Array as="points">
              <mxPoint x="310" y="580" />
            </Array>
          </mxGeometry>
        </mxCell>
        <mxCell id="32nzAGSy19erSscVr2zR-135" value="pubblica" style="rhombus;whiteSpace=wrap;html=1;fontSize=11;" parent="1" vertex="1">
          <mxGeometry x="269" y="440.5" width="80" height="74.75" as="geometry" />
        </mxCell>
        <mxCell id="32nzAGSy19erSscVr2zR-139" value="" style="edgeStyle=none;shape=connector;rounded=0;sketch=0;orthogonalLoop=1;jettySize=auto;html=1;entryX=1;entryY=0.5;entryDx=0;entryDy=0;shadow=0;labelBackgroundColor=default;strokeColor=default;fontFamily=Helvetica;fontSize=11;fontColor=default;endArrow=none;endFill=0;elbow=vertical;" parent="1" source="32nzAGSy19erSscVr2zR-135" target="32nzAGSy19erSscVr2zR-138" edge="1">
          <mxGeometry relative="1" as="geometry">
            <mxPoint x="309.29015745166043" y="440.7711158688953" as="sourcePoint" />
            <mxPoint x="120" y="350" as="targetPoint" />
            <Array as="points">
              <mxPoint x="310" y="350" />
            </Array>
          </mxGeometry>
        </mxCell>
        <mxCell id="32nzAGSy19erSscVr2zR-138" value="(1,N)" style="text;html=1;strokeColor=none;fillColor=none;align=center;verticalAlign=middle;whiteSpace=wrap;rounded=0;" parent="1" vertex="1">
          <mxGeometry x="180" y="335" width="60" height="30" as="geometry" />
        </mxCell>
        <mxCell id="32nzAGSy19erSscVr2zR-142" value="" style="edgeStyle=none;shape=connector;rounded=0;sketch=0;orthogonalLoop=1;jettySize=auto;html=1;shadow=0;labelBackgroundColor=default;strokeColor=default;fontFamily=Helvetica;fontSize=11;fontColor=default;endArrow=none;endFill=0;elbow=vertical;entryX=0.5;entryY=0;entryDx=0;entryDy=0;" parent="1" source="32nzAGSy19erSscVr2zR-135" target="32nzAGSy19erSscVr2zR-140" edge="1">
          <mxGeometry relative="1" as="geometry">
            <mxPoint x="309.4499793069717" y="514.8295505850483" as="sourcePoint" />
            <mxPoint x="398.5999999999999" y="600" as="targetPoint" />
            <Array as="points" />
          </mxGeometry>
        </mxCell>
        <mxCell id="32nzAGSy19erSscVr2zR-140" value="(1,1)" style="text;html=1;strokeColor=none;fillColor=none;align=center;verticalAlign=middle;whiteSpace=wrap;rounded=0;" parent="1" vertex="1">
          <mxGeometry x="279" y="542.5" width="60" height="30" as="geometry" />
        </mxCell>
        <mxCell id="XWmN3hp3CoIqbRZyM6_e-1" value="Condivisione" style="rounded=0;whiteSpace=wrap;html=1;" vertex="1" parent="1">
          <mxGeometry x="643" y="140" width="120" height="60" as="geometry" />
        </mxCell>
        <mxCell id="XWmN3hp3CoIqbRZyM6_e-2" value="con" style="rhombus;whiteSpace=wrap;html=1;" vertex="1" parent="1">
          <mxGeometry x="527.5" y="70" width="102.5" height="50" as="geometry" />
        </mxCell>
        <mxCell id="XWmN3hp3CoIqbRZyM6_e-3" value="" style="endArrow=none;html=1;rounded=0;" edge="1" parent="1" source="XWmN3hp3CoIqbRZyM6_e-13" target="XWmN3hp3CoIqbRZyM6_e-1">
          <mxGeometry width="50" height="50" relative="1" as="geometry">
            <mxPoint x="680" y="130" as="sourcePoint" />
            <mxPoint x="730" y="80" as="targetPoint" />
          </mxGeometry>
        </mxCell>
        <mxCell id="XWmN3hp3CoIqbRZyM6_e-4" value="" style="endArrow=none;html=1;rounded=0;exitX=1;exitY=0;exitDx=0;exitDy=0;" edge="1" parent="1" source="XWmN3hp3CoIqbRZyM6_e-1">
          <mxGeometry width="50" height="50" relative="1" as="geometry">
            <mxPoint x="730" y="140" as="sourcePoint" />
            <mxPoint x="810" y="110" as="targetPoint" />
          </mxGeometry>
        </mxCell>
        <mxCell id="XWmN3hp3CoIqbRZyM6_e-5" value="" style="endArrow=none;html=1;rounded=0;exitX=1;exitY=0.5;exitDx=0;exitDy=0;" edge="1" parent="1" source="XWmN3hp3CoIqbRZyM6_e-1">
          <mxGeometry width="50" height="50" relative="1" as="geometry">
            <mxPoint x="790" y="170" as="sourcePoint" />
            <mxPoint x="830" y="170" as="targetPoint" />
          </mxGeometry>
        </mxCell>
        <mxCell id="XWmN3hp3CoIqbRZyM6_e-6" value="" style="endArrow=none;html=1;rounded=0;exitX=1;exitY=1;exitDx=0;exitDy=0;" edge="1" parent="1" source="XWmN3hp3CoIqbRZyM6_e-1">
          <mxGeometry width="50" height="50" relative="1" as="geometry">
            <mxPoint x="740" y="270" as="sourcePoint" />
            <mxPoint x="810" y="230" as="targetPoint" />
          </mxGeometry>
        </mxCell>
        <mxCell id="XWmN3hp3CoIqbRZyM6_e-8" value="Data inizio" style="ellipse;whiteSpace=wrap;html=1;align=center;fontFamily=Helvetica;fontSize=11;fontColor=default;" vertex="1" parent="1">
          <mxGeometry x="800" y="90" width="100" height="40" as="geometry" />
        </mxCell>
        <mxCell id="XWmN3hp3CoIqbRZyM6_e-9" value="Data fine" style="ellipse;whiteSpace=wrap;html=1;align=center;fontFamily=Helvetica;fontSize=11;fontColor=default;" vertex="1" parent="1">
          <mxGeometry x="830" y="150" width="100" height="40" as="geometry" />
        </mxCell>
        <mxCell id="XWmN3hp3CoIqbRZyM6_e-10" value="Stato di attivazione" style="ellipse;whiteSpace=wrap;html=1;align=center;fontFamily=Helvetica;fontSize=11;fontColor=default;" vertex="1" parent="1">
          <mxGeometry x="800" y="220" width="100" height="40" as="geometry" />
        </mxCell>
        <mxCell id="XWmN3hp3CoIqbRZyM6_e-12" value="" style="edgeStyle=none;rounded=0;sketch=0;orthogonalLoop=1;jettySize=auto;html=1;shadow=0;strokeColor=default;endArrow=none;endFill=0;elbow=vertical;" edge="1" parent="1" source="PsZriic9sOLCEWJr2VZp-128" target="XWmN3hp3CoIqbRZyM6_e-11">
          <mxGeometry relative="1" as="geometry">
            <mxPoint x="597" y="234" as="sourcePoint" />
            <mxPoint x="653" y="200" as="targetPoint" />
          </mxGeometry>
        </mxCell>
        <mxCell id="XWmN3hp3CoIqbRZyM6_e-11" value="(1,1)" style="text;html=1;strokeColor=none;fillColor=none;align=center;verticalAlign=middle;whiteSpace=wrap;rounded=0;" vertex="1" parent="1">
          <mxGeometry x="603" y="210" width="40" height="20" as="geometry" />
        </mxCell>
        <mxCell id="XWmN3hp3CoIqbRZyM6_e-16" value="" style="endArrow=none;html=1;rounded=0;" edge="1" parent="1" source="XWmN3hp3CoIqbRZyM6_e-2" target="XWmN3hp3CoIqbRZyM6_e-13">
          <mxGeometry width="50" height="50" relative="1" as="geometry">
            <mxPoint x="608" y="107" as="sourcePoint" />
            <mxPoint x="657" y="140" as="targetPoint" />
          </mxGeometry>
        </mxCell>
        <mxCell id="XWmN3hp3CoIqbRZyM6_e-13" value="(1,N)" style="text;html=1;strokeColor=none;fillColor=none;align=center;verticalAlign=middle;whiteSpace=wrap;rounded=0;" vertex="1" parent="1">
          <mxGeometry x="625" y="110" width="30" height="20" as="geometry" />
        </mxCell>
        <mxCell id="XWmN3hp3CoIqbRZyM6_e-20" value="" style="edgeStyle=none;rounded=0;sketch=0;orthogonalLoop=1;jettySize=auto;html=1;shadow=0;strokeColor=default;endArrow=none;endFill=0;elbow=vertical;startArrow=none;" edge="1" parent="1" source="XWmN3hp3CoIqbRZyM6_e-2" target="XWmN3hp3CoIqbRZyM6_e-19">
          <mxGeometry relative="1" as="geometry">
            <mxPoint x="541" y="78" as="sourcePoint" />
            <mxPoint x="500" y="71" as="targetPoint" />
          </mxGeometry>
        </mxCell>
        <mxCell id="XWmN3hp3CoIqbRZyM6_e-19" value="(1,N)" style="text;html=1;strokeColor=none;fillColor=none;align=center;verticalAlign=middle;whiteSpace=wrap;rounded=0;" vertex="1" parent="1">
          <mxGeometry x="505" y="62.5" width="32.5" height="15" as="geometry" />
        </mxCell>
      </root>
    </mxGraphModel>
  </diagram>
</mxfile>
